<svg width="66" height="67" viewBox="0 0 66 67" fill="none" xmlns="http://www.w3.org/2000/svg">
<path d="M47.9369 1.11383V6.51607V64.8823C47.9369 65.4345 48.3846 65.8823 48.9369 65.8823H65C65.5523 65.8823 66 65.4345 66 64.8823V1.11383C66 0.561546 65.5523 0.113831 65 0.113831H48.9369C48.3846 0.113831 47.9369 0.561546 47.9369 1.11383Z" fill="#E84532"/>
<path fill-rule="evenodd" clip-rule="evenodd" d="M30.8 66.1119C48.1301 66.1119 62.9223 51.2872 62.9223 33C62.9223 14.7128 46.8564 0 29.5263 0C12.1962 0 0 14.7128 0 33C0 51.2872 13.4699 66.1119 30.8 66.1119ZM23.7684 22.261H39.4948C40.142 22.261 40.7491 22.5741 41.1244 23.1014L47.3389 31.8343C47.835 32.5314 47.8327 33.4669 47.3331 34.1616L41.1249 42.7948C40.7491 43.3173 40.1448 43.6271 39.5011 43.6271H23.7684C22.6639 43.6271 21.7684 42.7317 21.7684 41.6271V24.261C21.7684 23.1564 22.6638 22.261 23.7684 22.261Z" fill="#E84532"/>
</svg>
